<svg xmlns="http://www.w3.org/2000/svg" xmlns:xlink="http://www.w3.org/1999/xlink" width="328" zoomAndPan="magnify" viewBox="0 0 246 66.75" height="89" preserveAspectRatio="xMidYMid meet" version="1.0"><defs><g/></defs><g fill="#121212" fill-opacity="1"><g transform="translate(4.964284, 51.499883)"><g><path d="M 16.40625 0.875 C 14.25 0.875 12.351562 0.648438 10.71875 0.203125 C 9.082031 -0.242188 7.6875 -0.851562 6.53125 -1.625 C 5.375 -2.40625 4.429688 -3.296875 3.703125 -4.296875 C 2.984375 -5.304688 2.453125 -6.375 2.109375 -7.5 C 1.773438 -8.632812 1.609375 -9.769531 1.609375 -10.90625 L 9.828125 -10.90625 C 9.828125 -9.4375 10.394531 -8.253906 11.53125 -7.359375 C 12.675781 -6.460938 14.289062 -6.015625 16.375 -6.015625 C 18.675781 -6.015625 20.320312 -6.347656 21.3125 -7.015625 C 22.3125 -7.691406 22.8125 -8.695312 22.8125 -10.03125 C 22.8125 -10.84375 22.535156 -11.515625 21.984375 -12.046875 C 21.441406 -12.585938 20.644531 -13.046875 19.59375 -13.421875 C 18.539062 -13.804688 17.253906 -14.171875 15.734375 -14.515625 C 14.535156 -14.804688 13.316406 -15.140625 12.078125 -15.515625 C 10.847656 -15.898438 9.660156 -16.375 8.515625 -16.9375 C 7.367188 -17.5 6.335938 -18.175781 5.421875 -18.96875 C 4.515625 -19.757812 3.796875 -20.710938 3.265625 -21.828125 C 2.742188 -22.941406 2.484375 -24.242188 2.484375 -25.734375 C 2.484375 -27.785156 2.984375 -29.585938 3.984375 -31.140625 C 4.992188 -32.703125 6.503906 -33.921875 8.515625 -34.796875 C 10.523438 -35.679688 13.050781 -36.125 16.09375 -36.125 C 19.164062 -36.125 21.722656 -35.664062 23.765625 -34.75 C 25.816406 -33.832031 27.351562 -32.546875 28.375 -30.890625 C 29.394531 -29.234375 29.90625 -27.28125 29.90625 -25.03125 L 21.6875 -25.03125 C 21.6875 -25.6875 21.507812 -26.316406 21.15625 -26.921875 C 20.800781 -27.523438 20.207031 -28.015625 19.375 -28.390625 C 18.550781 -28.773438 17.421875 -28.96875 15.984375 -28.96875 C 14.535156 -28.96875 13.429688 -28.800781 12.671875 -28.46875 C 11.910156 -28.144531 11.390625 -27.734375 11.109375 -27.234375 C 10.835938 -26.734375 10.703125 -26.21875 10.703125 -25.6875 C 10.703125 -24.5625 11.320312 -23.675781 12.5625 -23.03125 C 13.8125 -22.382812 15.816406 -21.800781 18.578125 -21.28125 C 20.335938 -20.914062 21.976562 -20.441406 23.5 -19.859375 C 25.019531 -19.285156 26.347656 -18.554688 27.484375 -17.671875 C 28.628906 -16.796875 29.519531 -15.722656 30.15625 -14.453125 C 30.800781 -13.191406 31.125 -11.707031 31.125 -10 C 31.125 -7.65625 30.5 -5.671875 29.25 -4.046875 C 28.007812 -2.429688 26.285156 -1.207031 24.078125 -0.375 C 21.878906 0.457031 19.320312 0.875 16.40625 0.875 Z M 16.40625 0.875 "/></g></g></g><g fill="#121212" fill-opacity="1"><g transform="translate(37.53604, 51.499883)"><g><path d="M 11.8125 0 L 3.609375 0 L 3.609375 -35.25 L 18.875 -35.25 C 20.71875 -35.25 22.410156 -34.945312 23.953125 -34.34375 C 25.503906 -33.738281 26.847656 -32.890625 27.984375 -31.796875 C 29.128906 -30.710938 30.007812 -29.421875 30.625 -27.921875 C 31.25 -26.429688 31.5625 -24.804688 31.5625 -23.046875 C 31.5625 -21.140625 31.25 -19.414062 30.625 -17.875 C 30.007812 -16.34375 29.140625 -15.023438 28.015625 -13.921875 C 26.890625 -12.816406 25.554688 -11.960938 24.015625 -11.359375 C 22.484375 -10.765625 20.800781 -10.46875 18.96875 -10.46875 L 11.8125 -10.46875 Z M 11.8125 -27.9375 L 11.8125 -17.75 L 18.53125 -17.75 C 19.425781 -17.75 20.238281 -17.984375 20.96875 -18.453125 C 21.695312 -18.921875 22.273438 -19.554688 22.703125 -20.359375 C 23.128906 -21.160156 23.34375 -22.054688 23.34375 -23.046875 C 23.34375 -23.867188 23.128906 -24.648438 22.703125 -25.390625 C 22.273438 -26.140625 21.695312 -26.75 20.96875 -27.21875 C 20.238281 -27.695312 19.425781 -27.9375 18.53125 -27.9375 Z M 11.8125 -27.9375 "/></g></g></g><g fill="#121212" fill-opacity="1"><g transform="translate(69.693199, 51.499883)"><g><path d="M 36.75 0 L 28.0625 0 L 25.78125 -5.734375 L 11.09375 -5.734375 L 8.8125 0 L 0.125 0 L 14.59375 -35.265625 L 22.28125 -35.265625 Z M 18.171875 -23.5625 L 13.78125 -12.546875 L 23.09375 -12.546875 L 18.71875 -23.5625 L 18.484375 -24.640625 L 18.40625 -24.640625 Z M 18.171875 -23.5625 "/></g></g></g><g fill="#121212" fill-opacity="1"><g transform="translate(106.566397, 51.499883)"><g><path d="M 20.1875 0.796875 C 18.09375 0.796875 16.101562 0.488281 14.21875 -0.125 C 12.34375 -0.75 10.617188 -1.625 9.046875 -2.75 C 7.472656 -3.875 6.109375 -5.207031 4.953125 -6.75 C 3.804688 -8.300781 2.914062 -10 2.28125 -11.84375 C 1.65625 -13.695312 1.34375 -15.640625 1.34375 -17.671875 C 1.34375 -19.734375 1.65625 -21.6875 2.28125 -23.53125 C 2.914062 -25.382812 3.804688 -27.070312 4.953125 -28.59375 C 6.109375 -30.125 7.472656 -31.453125 9.046875 -32.578125 C 10.617188 -33.710938 12.34375 -34.585938 14.21875 -35.203125 C 16.101562 -35.816406 18.09375 -36.125 20.1875 -36.125 C 21.675781 -36.125 23.179688 -35.941406 24.703125 -35.578125 C 26.222656 -35.222656 27.6875 -34.664062 29.09375 -33.90625 C 30.5 -33.15625 31.789062 -32.195312 32.96875 -31.03125 C 34.15625 -29.863281 35.15625 -28.476562 35.96875 -26.875 C 36.78125 -25.28125 37.332031 -23.457031 37.625 -21.40625 L 29.265625 -21.40625 C 28.847656 -23.132812 28.1875 -24.523438 27.28125 -25.578125 C 26.375 -26.628906 25.289062 -27.394531 24.03125 -27.875 C 22.78125 -28.363281 21.421875 -28.609375 19.953125 -28.609375 C 18.535156 -28.609375 17.195312 -28.359375 15.9375 -27.859375 C 14.675781 -27.359375 13.570312 -26.632812 12.625 -25.6875 C 11.675781 -24.738281 10.925781 -23.585938 10.375 -22.234375 C 9.832031 -20.890625 9.5625 -19.363281 9.5625 -17.65625 C 9.5625 -15.90625 9.832031 -14.351562 10.375 -13 C 10.925781 -11.644531 11.675781 -10.5 12.625 -9.5625 C 13.570312 -8.625 14.675781 -7.914062 15.9375 -7.4375 C 17.195312 -6.957031 18.535156 -6.71875 19.953125 -6.71875 C 21.410156 -6.71875 22.765625 -6.957031 24.015625 -7.4375 C 25.265625 -7.914062 26.347656 -8.679688 27.265625 -9.734375 C 28.179688 -10.796875 28.835938 -12.179688 29.234375 -13.890625 L 37.625 -13.890625 C 37.332031 -11.835938 36.78125 -10.015625 35.96875 -8.421875 C 35.15625 -6.828125 34.164062 -5.445312 33 -4.28125 C 31.832031 -3.125 30.539062 -2.164062 29.125 -1.40625 C 27.707031 -0.65625 26.238281 -0.101562 24.71875 0.25 C 23.195312 0.613281 21.6875 0.796875 20.1875 0.796875 Z M 20.1875 0.796875 "/></g></g></g><g fill="#121212" fill-opacity="1"><g transform="translate(145.564403, 51.499883)"><g><path d="M 28.6875 0 L 3.609375 0 L 3.609375 -35.25 L 28.453125 -35.25 L 28.453125 -27.96875 L 11.8125 -27.96875 L 11.8125 -21.296875 L 26.09375 -21.296875 L 26.09375 -14.46875 L 11.8125 -14.46875 L 11.8125 -7.3125 L 28.6875 -7.3125 Z M 28.6875 0 "/></g></g></g><g fill="#121212" fill-opacity="1"><g transform="translate(175.778141, 51.499883)"><g/></g></g><g fill="#121212" fill-opacity="1"><g transform="translate(188.52699, 51.499883)"><g><path d="M 36.75 0 L 28.0625 0 L 25.78125 -5.734375 L 11.09375 -5.734375 L 8.8125 0 L 0.125 0 L 14.59375 -35.265625 L 22.28125 -35.265625 Z M 18.171875 -23.5625 L 13.78125 -12.546875 L 23.09375 -12.546875 L 18.71875 -23.5625 L 18.484375 -24.640625 L 18.40625 -24.640625 Z M 18.171875 -23.5625 "/></g></g></g><g fill="#121212" fill-opacity="1"><g transform="translate(225.4002, 51.499883)"><g><path d="M 11.8125 0 L 3.609375 0 L 3.609375 -35.25 L 11.8125 -35.25 Z M 11.8125 0 "/></g></g></g></svg>