<svg xmlns="http://www.w3.org/2000/svg" xmlns:xlink="http://www.w3.org/1999/xlink" width="160" zoomAndPan="magnify" viewBox="0 0 120 119.999999" height="160" preserveAspectRatio="xMidYMid meet" version="1.0"><defs><g/></defs><g fill="#121212" fill-opacity="1"><g transform="translate(22.960871, 64.122172)"><g><path d="M 5.140625 0.28125 C 4.460938 0.28125 3.867188 0.207031 3.359375 0.0625 C 2.847656 -0.0703125 2.410156 -0.257812 2.046875 -0.5 C 1.679688 -0.75 1.382812 -1.03125 1.15625 -1.34375 C 0.9375 -1.664062 0.769531 -2.003906 0.65625 -2.359375 C 0.550781 -2.710938 0.5 -3.066406 0.5 -3.421875 L 3.078125 -3.421875 C 3.078125 -2.960938 3.253906 -2.59375 3.609375 -2.3125 C 3.972656 -2.03125 4.484375 -1.890625 5.140625 -1.890625 C 5.859375 -1.890625 6.375 -1.992188 6.6875 -2.203125 C 7 -2.410156 7.15625 -2.722656 7.15625 -3.140625 C 7.15625 -3.398438 7.066406 -3.613281 6.890625 -3.78125 C 6.722656 -3.945312 6.472656 -4.085938 6.140625 -4.203125 C 5.816406 -4.328125 5.414062 -4.441406 4.9375 -4.546875 C 4.5625 -4.640625 4.179688 -4.742188 3.796875 -4.859375 C 3.410156 -4.984375 3.035156 -5.132812 2.671875 -5.3125 C 2.304688 -5.488281 1.984375 -5.703125 1.703125 -5.953125 C 1.421875 -6.203125 1.195312 -6.5 1.03125 -6.84375 C 0.863281 -7.195312 0.78125 -7.609375 0.78125 -8.078125 C 0.78125 -8.722656 0.9375 -9.285156 1.25 -9.765625 C 1.5625 -10.253906 2.035156 -10.640625 2.671875 -10.921875 C 3.304688 -11.203125 4.097656 -11.34375 5.046875 -11.34375 C 6.015625 -11.34375 6.816406 -11.195312 7.453125 -10.90625 C 8.097656 -10.613281 8.582031 -10.207031 8.90625 -9.6875 C 9.226562 -9.164062 9.390625 -8.554688 9.390625 -7.859375 L 6.8125 -7.859375 C 6.8125 -8.066406 6.753906 -8.265625 6.640625 -8.453125 C 6.523438 -8.640625 6.335938 -8.789062 6.078125 -8.90625 C 5.816406 -9.03125 5.460938 -9.09375 5.015625 -9.09375 C 4.554688 -9.09375 4.207031 -9.039062 3.96875 -8.9375 C 3.738281 -8.832031 3.578125 -8.703125 3.484375 -8.546875 C 3.398438 -8.390625 3.359375 -8.226562 3.359375 -8.0625 C 3.359375 -7.707031 3.550781 -7.425781 3.9375 -7.21875 C 4.332031 -7.019531 4.960938 -6.835938 5.828125 -6.671875 C 6.378906 -6.554688 6.894531 -6.410156 7.375 -6.234375 C 7.851562 -6.054688 8.269531 -5.828125 8.625 -5.546875 C 8.988281 -5.265625 9.269531 -4.925781 9.46875 -4.53125 C 9.664062 -4.132812 9.765625 -3.671875 9.765625 -3.140625 C 9.765625 -2.398438 9.566406 -1.773438 9.171875 -1.265625 C 8.785156 -0.765625 8.242188 -0.378906 7.546875 -0.109375 C 6.859375 0.148438 6.054688 0.28125 5.140625 0.28125 Z M 5.140625 0.28125 "/></g></g></g><g fill="#121212" fill-opacity="1"><g transform="translate(33.181756, 64.122172)"><g><path d="M 3.703125 0 L 1.125 0 L 1.125 -11.0625 L 5.921875 -11.0625 C 6.503906 -11.0625 7.035156 -10.960938 7.515625 -10.765625 C 8.003906 -10.578125 8.425781 -10.3125 8.78125 -9.96875 C 9.144531 -9.632812 9.421875 -9.234375 9.609375 -8.765625 C 9.804688 -8.296875 9.90625 -7.785156 9.90625 -7.234375 C 9.90625 -6.628906 9.804688 -6.085938 9.609375 -5.609375 C 9.421875 -5.128906 9.148438 -4.710938 8.796875 -4.359375 C 8.441406 -4.015625 8.019531 -3.75 7.53125 -3.5625 C 7.050781 -3.375 6.523438 -3.28125 5.953125 -3.28125 L 3.703125 -3.28125 Z M 3.703125 -8.765625 L 3.703125 -5.578125 L 5.8125 -5.578125 C 6.09375 -5.578125 6.347656 -5.648438 6.578125 -5.796875 C 6.804688 -5.941406 6.988281 -6.140625 7.125 -6.390625 C 7.257812 -6.640625 7.328125 -6.921875 7.328125 -7.234375 C 7.328125 -7.492188 7.257812 -7.738281 7.125 -7.96875 C 6.988281 -8.195312 6.804688 -8.382812 6.578125 -8.53125 C 6.347656 -8.6875 6.09375 -8.765625 5.8125 -8.765625 Z M 3.703125 -8.765625 "/></g></g></g><g fill="#121212" fill-opacity="1"><g transform="translate(43.272542, 64.122172)"><g><path d="M 11.53125 0 L 8.8125 0 L 8.09375 -1.796875 L 3.484375 -1.796875 L 2.765625 0 L 0.046875 0 L 4.578125 -11.0625 L 7 -11.0625 Z M 5.703125 -7.390625 L 4.328125 -3.9375 L 7.25 -3.9375 L 5.875 -7.390625 L 5.796875 -7.734375 L 5.78125 -7.734375 Z M 5.703125 -7.390625 "/></g></g></g><g fill="#121212" fill-opacity="1"><g transform="translate(54.843202, 64.122172)"><g><path d="M 6.328125 0.25 C 5.671875 0.25 5.046875 0.15625 4.453125 -0.03125 C 3.867188 -0.226562 3.328125 -0.503906 2.828125 -0.859375 C 2.335938 -1.210938 1.910156 -1.628906 1.546875 -2.109375 C 1.191406 -2.597656 0.914062 -3.132812 0.71875 -3.71875 C 0.519531 -4.300781 0.421875 -4.910156 0.421875 -5.546875 C 0.421875 -6.191406 0.519531 -6.800781 0.71875 -7.375 C 0.914062 -7.957031 1.191406 -8.488281 1.546875 -8.96875 C 1.910156 -9.445312 2.335938 -9.863281 2.828125 -10.21875 C 3.328125 -10.582031 3.867188 -10.859375 4.453125 -11.046875 C 5.046875 -11.242188 5.671875 -11.34375 6.328125 -11.34375 C 6.796875 -11.34375 7.269531 -11.285156 7.75 -11.171875 C 8.226562 -11.054688 8.6875 -10.878906 9.125 -10.640625 C 9.570312 -10.398438 9.976562 -10.097656 10.34375 -9.734375 C 10.71875 -9.367188 11.03125 -8.9375 11.28125 -8.4375 C 11.539062 -7.9375 11.71875 -7.363281 11.8125 -6.71875 L 9.1875 -6.71875 C 9.050781 -7.257812 8.84375 -7.691406 8.5625 -8.015625 C 8.28125 -8.347656 7.941406 -8.59375 7.546875 -8.75 C 7.148438 -8.90625 6.722656 -8.984375 6.265625 -8.984375 C 5.816406 -8.984375 5.394531 -8.898438 5 -8.734375 C 4.601562 -8.578125 4.253906 -8.347656 3.953125 -8.046875 C 3.660156 -7.753906 3.425781 -7.394531 3.25 -6.96875 C 3.082031 -6.550781 3 -6.070312 3 -5.53125 C 3 -4.988281 3.082031 -4.503906 3.25 -4.078125 C 3.425781 -3.648438 3.660156 -3.289062 3.953125 -3 C 4.253906 -2.707031 4.601562 -2.484375 5 -2.328125 C 5.394531 -2.179688 5.816406 -2.109375 6.265625 -2.109375 C 6.722656 -2.109375 7.144531 -2.179688 7.53125 -2.328125 C 7.925781 -2.484375 8.265625 -2.722656 8.546875 -3.046875 C 8.835938 -3.378906 9.046875 -3.816406 9.171875 -4.359375 L 11.8125 -4.359375 C 11.71875 -3.710938 11.539062 -3.140625 11.28125 -2.640625 C 11.03125 -2.140625 10.722656 -1.707031 10.359375 -1.34375 C 9.992188 -0.976562 9.585938 -0.675781 9.140625 -0.4375 C 8.691406 -0.207031 8.226562 -0.0351562 7.75 0.078125 C 7.28125 0.191406 6.804688 0.25 6.328125 0.25 Z M 6.328125 0.25 "/></g></g></g><g fill="#121212" fill-opacity="1"><g transform="translate(67.080618, 64.122172)"><g><path d="M 9 0 L 1.125 0 L 1.125 -11.0625 L 8.9375 -11.0625 L 8.9375 -8.78125 L 3.703125 -8.78125 L 3.703125 -6.6875 L 8.1875 -6.6875 L 8.1875 -4.53125 L 3.703125 -4.53125 L 3.703125 -2.296875 L 9 -2.296875 Z M 9 0 "/></g></g></g><g fill="#121212" fill-opacity="1"><g transform="translate(76.561567, 64.122172)"><g/></g></g><g fill="#121212" fill-opacity="1"><g transform="translate(80.562104, 64.122172)"><g><path d="M 11.53125 0 L 8.8125 0 L 8.09375 -1.796875 L 3.484375 -1.796875 L 2.765625 0 L 0.046875 0 L 4.578125 -11.0625 L 7 -11.0625 Z M 5.703125 -7.390625 L 4.328125 -3.9375 L 7.25 -3.9375 L 5.875 -7.390625 L 5.796875 -7.734375 L 5.78125 -7.734375 Z M 5.703125 -7.390625 "/></g></g></g><g fill="#121212" fill-opacity="1"><g transform="translate(92.132768, 64.122172)"><g><path d="M 3.703125 0 L 1.125 0 L 1.125 -11.0625 L 3.703125 -11.0625 Z M 3.703125 0 "/></g></g></g></svg>